<?xml version="1.0" encoding="UTF-8" standalone="no"?><!-- Generator: Gravit.io --><svg xmlns="http://www.w3.org/2000/svg" xmlns:xlink="http://www.w3.org/1999/xlink" style="isolation:isolate" viewBox="0 0 512 512" width="512pt" height="512pt"><g><path d=" M 120.249 0 L 120.249 0 C 155.572 0 184.249 28.677 184.249 64 L 184.249 448 C 184.249 483.323 155.572 512 120.249 512 L 120.249 512 C 84.926 512 56.249 483.323 56.249 448 L 56.249 64 C 56.249 28.677 84.926 0 120.249 0 Z " fill="rgb(246,126,125)"/><clipPath id="_clipPath_l7d4NkIXmD5dNucnXRvn2pdIeYgmYBWb"><path d=" M 120.249 0 L 120.249 0 C 155.572 0 184.249 28.677 184.249 64 L 184.249 448 C 184.249 483.323 155.572 512 120.249 512 L 120.249 512 C 84.926 512 56.249 483.323 56.249 448 L 56.249 64 C 56.249 28.677 84.926 0 120.249 0 Z " fill="rgb(246,126,125)"/></clipPath><g clip-path="url(#_clipPath_l7d4NkIXmD5dNucnXRvn2pdIeYgmYBWb)"><ellipse vector-effect="non-scaling-stroke" cx="37.747169678398194" cy="225.49999999999983" rx="162.49999999999994" ry="173.4999999999999" fill="rgb(255,185,151)"/></g><path d=" M 290.261 256 C 290.261 336.998 412.042 377.781 437.018 402.758 C 461.995 427.735 461.995 468.291 437.018 493.267 L 437.018 493.267 Q 412.042 518.244 346.509 493.267 Q 120.247 383.137 120.247 256 Q 120.247 128.863 346.509 18.733 Q 412.042 -6.244 437.018 18.733 L 437.018 18.733 C 461.995 43.709 461.995 84.265 437.018 109.242 C 412.042 134.219 290.261 175.002 290.261 256 Z " fill="rgb(246,126,125)"/><clipPath id="_clipPath_V4AM28ZXmmD8bEpai7ttWoS61ulZXnaf"><path d=" M 290.261 256 C 290.261 336.998 412.042 377.781 437.018 402.758 C 461.995 427.735 461.995 468.291 437.018 493.267 L 437.018 493.267 Q 412.042 518.244 346.509 493.267 Q 120.247 383.137 120.247 256 Q 120.247 128.863 346.509 18.733 Q 412.042 -6.244 437.018 18.733 L 437.018 18.733 C 461.995 43.709 461.995 84.265 437.018 109.242 C 412.042 134.219 290.261 175.002 290.261 256 Z " fill="rgb(246,126,125)"/></clipPath><g clip-path="url(#_clipPath_V4AM28ZXmmD8bEpai7ttWoS61ulZXnaf)"><ellipse vector-effect="non-scaling-stroke" cx="409.7471696783982" cy="340.0000000000002" rx="162.49999999999997" ry="184" fill="rgb(255,185,151)"/></g></g></svg>